<?xml version="1.0" encoding="UTF-8"?>
<svg version="1.1" xmlns="http://www.w3.org/2000/svg" width="1852" height="356">
<path d="M0 0 C3.06387103 -0.30435805 5.45664117 -0.21785309 7.92578125 1.75390625 C9.66801057 3.8782433 10.962975 6.04995932 12.296875 8.453125 C13.12638672 9.87625 13.12638672 9.87625 13.97265625 11.328125 C26.83520326 35.05681483 31.05191309 63.1165812 35.296875 89.453125 C34.09603271 89.62851807 32.89519043 89.80391113 31.65795898 89.98461914 C-19.64836995 97.52277991 -68.23300942 108.99255018 -115.703125 130.453125 C-103.55434367 149.67877194 -91.01787924 168.65981628 -78.51463318 187.65605164 C-76.47972836 190.74832598 -74.44719225 193.84205373 -72.42382812 196.94189453 C-70.4602351 199.94949782 -68.48896431 202.95191155 -66.515625 205.953125 C-65.94593994 206.830896 -65.37625488 207.70866699 -64.78930664 208.61303711 C-64.27231201 209.39557861 -63.75531738 210.17812012 -63.22265625 210.984375 C-62.78026611 211.66048828 -62.33787598 212.33660156 -61.88208008 213.03320312 C-61.4930249 213.50177734 -61.10396973 213.97035156 -60.703125 214.453125 C-58.60939073 214.67125144 -58.60939073 214.67125144 -57.13427734 213.09545898 C-56.220896 212.15682007 -56.220896 212.15682007 -55.2890625 211.19921875 C-54.60972656 210.50892578 -53.93039063 209.81863281 -53.23046875 209.10742188 C-52.16505859 208.01010742 -52.16505859 208.01010742 -51.078125 206.890625 C-45.81172965 201.49084065 -40.46267027 196.32630989 -34.703125 191.453125 C-34.08083008 190.92436768 -33.45853516 190.39561035 -32.81738281 189.85083008 C-23.53325816 182.03115112 -14.00948135 174.86775151 -3.703125 168.453125 C-3.03168457 168.03434082 -2.36024414 167.61555664 -1.66845703 167.18408203 C8.63626904 160.81507161 19.21697567 155.34554808 30.296875 150.453125 C31.65039062 149.84984375 31.65039062 149.84984375 33.03125 149.234375 C35.296875 148.453125 35.296875 148.453125 39.296875 148.453125 C51.37398901 258.02739723 51.37398901 258.02739723 53.75341797 307.49023438 C53.81416504 308.74255859 53.87491211 309.99488281 53.9375 311.28515625 C53.98422852 312.34452393 54.03095703 313.4038916 54.07910156 314.49536133 C54.30246325 317.52902367 54.75057315 320.4621503 55.296875 323.453125 C69.21129477 284.12427381 77.49541307 244.41852938 77.4296875 202.53515625 C77.43036457 201.14336632 77.43133791 199.75157652 77.43258667 198.35978699 C77.43404718 195.46307229 77.4319645 192.56638876 77.42724609 189.66967773 C77.42157589 186.01685155 77.42490613 182.3640987 77.43069839 178.7112751 C77.45089262 163.60162157 77.37338465 148.53284281 76.296875 133.453125 C90.73338297 129.88238497 105.1490644 126.39540767 119.859375 124.140625 C120.80538574 123.99399414 121.75139648 123.84736328 122.72607422 123.69628906 C125.91216791 123.2339741 129.09974967 122.83234567 132.296875 122.453125 C133.0304422 122.36599243 133.7640094 122.27885986 134.51980591 122.18908691 C148.41765003 120.58412329 162.12969416 120.20148231 176.109375 120.328125 C178.08528181 120.33819704 180.06119372 120.34731526 182.03710938 120.35546875 C186.79049503 120.37709691 191.54362521 120.41138194 196.296875 120.453125 C197.1075498 123.48608534 197.91354702 126.52027031 198.71875 129.5546875 C198.94675293 130.40748291 199.17475586 131.26027832 199.40966797 132.13891602 C211.0420682 176.06708927 201.99014929 221.80553464 179.87744141 260.80566406 C175.90590972 267.45801031 171.22534224 273.49147648 166.296875 279.453125 C165.801875 280.06478516 165.306875 280.67644531 164.796875 281.30664062 C150.20514172 299.29931175 132.70359205 313.71390256 112.16699219 324.46679688 C110.43828722 325.37854205 108.72977785 326.32830575 107.0234375 327.28125 C88.25604156 337.36929334 67.50980801 341.81392559 46.75683594 345.77392578 C43.56252066 346.40097808 40.38710379 347.0803472 37.2109375 347.79296875 C25.92632832 350.3137972 14.63572514 352.22908817 3.171875 353.703125 C1.90359863 353.86635254 0.63532227 354.02958008 -0.67138672 354.19775391 C-13.97398121 355.83421876 -27.195544 356.6121832 -40.6015625 356.65625 C-41.28796436 356.65907738 -41.97436623 356.66190475 -42.68156815 356.66481781 C-46.33003344 356.67968374 -49.97846064 356.68898664 -53.62695312 356.69335938 C-56.56230426 356.69769603 -59.49735348 356.7114168 -62.43261719 356.734375 C-172.45574199 357.57655828 -172.45574199 357.57655828 -203.390625 327.140625 C-206.17426862 323.55819669 -206.46096728 320.25889628 -206.14453125 315.80859375 C-205.12423326 310.36399473 -202.09979419 307.54440743 -197.765625 304.453125 C-172.40561757 288.69545048 -140.79111228 284.77900479 -111.703125 281.453125 C-112.38117188 280.56753906 -113.05921875 279.68195313 -113.7578125 278.76953125 C-142.28271865 241.01689026 -155.94978404 195.28293591 -149.453125 148.0078125 C-144.09112316 113.59159282 -129.42251573 82.07454898 -105.65234375 56.5546875 C-103.90784794 54.67384833 -102.26844932 52.74694469 -100.640625 50.765625 C-97.33531241 46.9034391 -93.63238358 43.66797293 -89.703125 40.453125 C-88.78917969 39.70160156 -87.87523438 38.95007812 -86.93359375 38.17578125 C-61.37794017 17.82769481 -32.1290137 5.38578842 0 0 Z " fill="#B50005" transform="translate(205.703125,-0.453125)"/>
<path d="M0 0 C0.88602402 0.00222061 1.77204803 0.00444122 2.68492126 0.00672913 C3.68588333 0.00680466 4.6868454 0.00688019 5.71813965 0.00695801 C6.80666733 0.01211929 7.89519501 0.01728058 9.01670837 0.02259827 C10.67928932 0.02472069 10.67928932 0.02472069 12.37545776 0.02688599 C15.93168281 0.03250418 19.48784596 0.04505977 23.04405212 0.05775452 C25.44834809 0.06276717 27.85264504 0.06733048 30.25694275 0.07142639 C36.16516848 0.08163058 42.07335249 0.10039626 47.98155212 0.12025452 C44.48072671 18.01436317 40.71024044 35.84333334 36.81622815 53.65545154 C36.0342427 57.2343218 35.25453038 60.81368748 34.47445679 64.39297485 C33.1657444 70.39622839 31.85532613 76.3991075 30.54380798 82.40174866 C29.04480187 89.2625868 27.54843868 96.1239972 26.05351883 102.98572677 C24.5936337 109.6863768 23.13192099 116.38662693 21.66940117 123.08670235 C21.05697325 125.89246277 20.44512087 128.69834766 19.83378792 131.50434685 C18.97287127 135.45541761 18.10926451 139.40589631 17.24546814 143.3563385 C17.0037236 144.46723343 16.76197906 145.57812836 16.51290894 146.72268677 C13.7766806 159.21491694 10.85779243 171.65654653 7.98155212 184.12025452 C-11.81844788 184.12025452 -31.61844788 184.12025452 -52.01844788 184.12025452 C-52.58434631 177.28564514 -53.15024475 170.45103577 -53.73329163 163.40931702 C-54.09286353 159.08896563 -54.4526776 154.76863717 -54.81336975 150.44837952 C-55.38630844 143.58561901 -55.95833132 136.7227905 -56.52503967 129.85951233 C-56.98180016 124.32847078 -57.44255141 118.79777507 -57.90611458 113.26729965 C-58.08258385 111.15343002 -58.25759559 109.03943821 -58.43115044 106.9253273 C-58.67380054 103.97255443 -58.92155073 101.02025189 -59.17054749 98.06800842 C-59.24175812 97.18687881 -59.31296875 96.30574921 -59.38633728 95.3979187 C-59.657545 91.1236633 -59.657545 91.1236633 -61.01844788 87.12025452 C-67.61844788 119.13025452 -74.21844788 151.14025452 -81.01844788 184.12025452 C-95.20844788 184.12025452 -109.39844788 184.12025452 -124.01844788 184.12025452 C-119.40946225 145.15970531 -114.71798394 106.20919446 -109.96702576 67.26570129 C-109.37427391 62.40578824 -108.7835946 57.5456299 -108.19462585 52.68525696 C-107.49262614 46.89318543 -106.78641602 41.1016426 -106.07697296 35.31047821 C-105.81250976 33.14592177 -105.54953205 30.9811833 -105.28807831 28.81626129 C-104.9288453 25.84400744 -104.56431194 22.87245158 -104.19837952 19.90101624 C-104.0929675 19.01855791 -103.98755548 18.13609959 -103.87894917 17.2269001 C-103.13257811 11.23438475 -103.13257811 11.23438475 -102.01844788 10.12025452 C-99.71790952 10.02582116 -97.41442614 10.00283323 -95.11195374 10.00672913 C-94.39004349 10.0065831 -93.66813324 10.00643707 -92.92434692 10.00628662 C-90.5272984 10.00698583 -88.13032665 10.01477857 -85.73329163 10.02259827 C-84.07562299 10.02446242 -82.41795381 10.02588633 -80.76028442 10.02688599 C-76.38890574 10.03071139 -72.01756006 10.04054186 -67.64619446 10.05158997 C-63.18890327 10.0618036 -58.73160676 10.0663835 -54.27430725 10.07142639 C-45.52233894 10.08216412 -36.77039751 10.0992408 -28.01844788 10.12025452 C-27.24546409 19.16173814 -26.47473971 28.20341355 -25.70594788 37.24525452 C-25.64912968 37.91348362 -25.59231148 38.58171272 -25.53377151 39.27019119 C-23.61200952 61.88045768 -21.75651698 84.49505357 -20.01844788 107.12025452 C-18.51521642 105.61702306 -18.61078094 104.10985123 -18.29750061 102.02052307 C-18.16294464 101.13710739 -18.02838867 100.25369171 -17.88975525 99.34350586 C-17.67308701 97.87851402 -17.67308701 97.87851402 -17.45204163 96.38392639 C-17.29744476 95.36126175 -17.1428479 94.33859711 -16.98356628 93.28494263 C-16.64726532 91.05674287 -16.31287904 88.82825351 -15.98014832 86.59951782 C-15.45437238 83.07845361 -14.92351224 79.55819042 -14.39125061 76.0381012 C-13.26238509 68.56617453 -12.13997047 61.09328639 -11.01844788 53.62025452 C-9.7194503 44.96465512 -8.41786678 36.30946212 -7.10929871 27.65530396 C-6.58468721 24.17630223 -6.06504642 20.69658042 -5.54554749 17.21681213 C-5.22555996 15.09669886 -4.90534158 12.9766204 -4.58485413 10.85658264 C-4.44040863 9.87992142 -4.29596313 8.90326019 -4.1471405 7.89700317 C-4.01258453 7.01358749 -3.87802856 6.13017181 -3.73939514 5.21998596 C-3.62362625 4.44790047 -3.50785736 3.67581497 -3.38858032 2.88033295 C-2.86085461 0.37085654 -2.58476197 0.15399422 0 0 Z " fill="#231815" transform="translate(1598.0184478759766,76.87974548339844)"/>
<path d="M0 0 C1.02371704 0.52291626 1.02371704 0.52291626 2.06811523 1.05639648 C18.09154863 9.44909122 31.54121498 20.07103518 37.6875 37.6875 C42.11264292 53.89386758 38.42526408 69.67266854 30.52319336 84.08276367 C27.06098025 90.07113638 22.85517242 95.28541382 18.25 100.4375 C17.55261719 101.25476563 16.85523438 102.07203125 16.13671875 102.9140625 C11.9448919 107.74194352 7.49290084 112.21533381 2.8125 116.5625 C2.31137695 117.02906006 1.81025391 117.49562012 1.29394531 117.97631836 C-3.52181611 122.37447967 -8.63126089 126.39998676 -13.75 130.4375 C-13.29262451 131.13609131 -12.83524902 131.83468262 -12.36401367 132.55444336 C-3.87203989 145.52731562 4.61971989 158.49991576 13.01806641 171.53369141 C14.31066921 173.53125713 15.61347461 175.52190116 16.91796875 177.51171875 C17.34271484 178.16301758 17.76746094 178.81431641 18.20507812 179.48535156 C19.00358966 180.70969373 19.80546765 181.93184954 20.61132812 183.15136719 C23.25 187.21180034 23.25 187.21180034 23.25 189.4375 C2.79 189.4375 -17.67 189.4375 -38.75 189.4375 C-44.71677521 178.1006271 -50.63700626 166.78974985 -56.3125 155.3125 C-57.51982215 152.8712306 -58.72984998 150.43136487 -59.94140625 147.9921875 C-60.71786499 146.42186768 -60.71786499 146.42186768 -61.51000977 144.81982422 C-62.54230941 142.54493755 -62.54230941 142.54493755 -63.75 141.4375 C-67.05 157.6075 -70.35 173.7775 -73.75 190.4375 C-89.92 190.4375 -106.09 190.4375 -122.75 190.4375 C-118.28661459 159.44697733 -113.41436174 128.52234262 -108.53876638 97.59469163 C-107.60521981 91.67130543 -106.67491953 85.74741253 -105.74528956 79.82341057 C-104.83917744 74.05003471 -103.9310864 68.2769725 -103.02139592 62.50415939 C-102.48205403 59.08140353 -101.94346409 55.65853379 -101.4068222 52.23535347 C-100.81414509 48.45535391 -100.21734172 44.67601241 -99.62011719 40.89672852 C-99.44455292 39.77338608 -99.26898865 38.65004364 -99.08810425 37.49266052 C-98.9256723 36.4690744 -98.76324036 35.44548828 -98.59588623 34.3908844 C-98.45581524 33.50126794 -98.31574425 32.61165148 -98.17142868 31.69507694 C-97.75 29.4375 -97.75 29.4375 -96.75 26.4375 C-79.59 26.1075 -62.43 25.7775 -44.75 25.4375 C-50.69 21.4775 -56.63 17.5175 -62.75 13.4375 C-65.06 11.7875 -67.37 10.1375 -69.75 8.4375 C-66.91555985 6.54787323 -65.19480448 5.88963984 -61.96240234 5.07714844 C-60.99064056 4.83059509 -60.01887878 4.58404175 -59.01766968 4.33001709 C-57.96769806 4.0715802 -56.91772644 3.81314331 -55.8359375 3.546875 C-54.75172516 3.27860901 -53.66751282 3.01034302 -52.55044556 2.73394775 C-50.25307217 2.16907974 -47.95481569 1.60779321 -45.65576172 1.04980469 C-42.15498455 0.19482301 -38.66178059 -0.68736414 -35.16796875 -1.5703125 C-32.93270736 -2.11628802 -30.69704182 -2.66061211 -28.4609375 -3.203125 C-27.42311127 -3.46965881 -26.38528503 -3.73619263 -25.31600952 -4.01080322 C-15.63440093 -6.29708442 -8.67651353 -4.49580196 0 0 Z M-42.75 26.4375 C-50.39731617 65.16776875 -50.39731617 65.16776875 -57.91723633 103.9229126 C-58.26263427 105.71680191 -58.60962627 107.51038508 -58.95825195 109.3036499 C-59.43891525 111.77841476 -59.91366074 114.25424054 -60.38671875 116.73046875 C-60.52679855 117.44564163 -60.66687836 118.16081451 -60.811203 118.8976593 C-61.48418605 122.45880366 -61.90305698 125.81193526 -61.75 129.4375 C-57.76080537 125.69866019 -54.7359924 121.77724195 -51.73046875 117.22265625 C-51.26820389 116.53046494 -50.80593903 115.83827362 -50.32966614 115.12510681 C-49.35459201 113.66200782 -48.38236613 112.19700706 -47.4128418 110.73022461 C-45.95934486 108.53302214 -44.49512631 106.3432853 -43.02929688 104.15429688 C-25.60804214 79.40497796 -25.60804214 79.40497796 -21.75 50.4375 C-24.66248172 40.09895232 -33.70416245 31.69117535 -42.75 26.4375 Z M-62.75 129.4375 C-61.75 131.4375 -61.75 131.4375 -61.75 131.4375 Z " fill="#231815" transform="translate(746.75,71.5625)"/>
<path d="M0 0 C34.98 0 69.96 0 106 0 C105.37084702 5.66237678 104.71467917 10.91295983 103.58984375 16.44140625 C103.45808243 17.09455307 103.32632111 17.74769989 103.19056702 18.42063904 C102.77654509 20.46869042 102.35713659 22.51559252 101.9375 24.5625 C101.65263437 25.96672381 101.36812634 27.37102021 101.08398438 28.77539062 C100.39344219 32.18444025 99.69807102 35.59248307 99 39 C97.95134766 39.05534912 96.90269531 39.11069824 95.82226562 39.16772461 C91.9008846 39.37546051 87.97971407 39.58696514 84.05859375 39.79956055 C82.36724193 39.89074507 80.67583599 39.98093178 78.984375 40.07006836 C76.54151452 40.1989811 74.09887653 40.33157977 71.65625 40.46484375 C70.53700134 40.52272316 70.53700134 40.52272316 69.3951416 40.58177185 C64.55904736 40.85016196 59.80045142 41.35250828 55 42 C54.79318604 43.07483643 54.58637207 44.14967285 54.37329102 45.25708008 C53.60563517 49.2438031 52.83532424 53.23000924 52.06420898 57.21606445 C51.73080124 58.94151037 51.39811424 60.66709572 51.06616211 62.39282227 C50.58897163 64.87292882 50.10919368 67.35252283 49.62890625 69.83203125 C49.48095108 70.60400345 49.33299591 71.37597565 49.18055725 72.17134094 C48.59380889 75.18958195 47.97357334 78.07927998 47 81 C61.19 81 75.38 81 90 81 C88.875 92.25 88.875 92.25 87.80859375 97.0078125 C87.58623047 98.01328125 87.36386719 99.01875 87.13476562 100.0546875 C86.90466797 101.06789063 86.67457031 102.08109375 86.4375 103.125 C86.20353516 104.176875 85.96957031 105.22875 85.72851562 106.3125 C85.15750875 108.87620435 84.58126181 111.43860496 84 114 C79.01953488 114.02487171 74.03910658 114.04294081 69.05859375 114.05493164 C67.36718109 114.05993487 65.67577269 114.06673952 63.984375 114.07543945 C61.54165589 114.08768185 59.09899438 114.09326855 56.65625 114.09765625 C55.91008423 114.10281754 55.16391846 114.10797882 54.3951416 114.11329651 C49.51244027 114.11380862 44.83484201 113.69035046 40 113 C39.86424561 113.75506836 39.72849121 114.51013672 39.58862305 115.28808594 C38.95905534 118.77615214 38.32330973 122.26306642 37.6875 125.75 C37.47416016 126.93722656 37.26082031 128.12445313 37.04101562 129.34765625 C36.82509766 130.52714844 36.60917969 131.70664063 36.38671875 132.921875 C36.19295654 133.99018555 35.99919434 135.05849609 35.79956055 136.15917969 C34.69288995 141.47525353 33.31697874 146.73208505 32 152 C46.52 152 61.04 152 76 152 C74.87304891 163.26951093 74.87304891 163.26951093 74.0625 167.75390625 C73.88976562 168.70974609 73.71703125 169.66558594 73.5390625 170.65039062 C73.27222656 172.09188477 73.27222656 172.09188477 73 173.5625 C72.73316406 175.05620117 72.73316406 175.05620117 72.4609375 176.58007812 C72.28820312 177.52431641 72.11546875 178.46855469 71.9375 179.44140625 C71.78152344 180.29420166 71.62554688 181.14699707 71.46484375 182.02563477 C71 184 71 184 70 185 C67.16959328 185.09520906 64.36365007 185.12553631 61.53295898 185.11352539 C60.64523804 185.11367142 59.75751709 185.11381744 58.84289551 185.1139679 C55.89393716 185.11326843 52.94504113 185.10547448 49.99609375 185.09765625 C47.95728083 185.09579219 45.91846746 185.09436823 43.87965393 185.09336853 C38.50215426 185.08954241 33.12468142 185.07971132 27.74719238 185.06866455 C22.26440799 185.05845245 16.78161928 185.05387134 11.29882812 185.04882812 C0.53254027 185.03808914 -10.23372764 185.02101159 -21 185 C-19.85953291 175.6035102 -18.71315287 166.20774732 -17.5625 156.8125 C-17.43152924 155.74306593 -17.43152924 155.74306593 -17.2979126 154.65202713 C-14.3056008 130.2330617 -11.19480444 105.83077159 -8 81.4375 C-7.89922779 80.6680518 -7.79845558 79.89860359 -7.69462967 79.10583878 C-6.46720283 69.73668337 -5.23573772 60.36806317 -4 51 C-2.56350916 50.41418595 -1.12572175 49.83155156 0.3125 49.25 C1.11300781 48.92515625 1.91351562 48.6003125 2.73828125 48.265625 C7.46266978 46.43244909 12.23752036 44.73181078 17 43 C8.09 43 -0.82 43 -10 43 C-6.85625279 28.61131087 -3.43906839 14.32945162 0 0 Z " fill="#231815" transform="translate(523,77)"/>
<path d="M0 0 C34.98 0 69.96 0 106 0 C103.75 14.625 103.75 14.625 102.7109375 19.95703125 C102.49179687 21.08818359 102.27265625 22.21933594 102.046875 23.38476562 C101.82515625 24.51591797 101.6034375 25.64707031 101.375 26.8125 C101.14554688 27.99392578 100.91609375 29.17535156 100.6796875 30.39257812 C100.12203522 33.2621638 99.56211508 36.13128583 99 39 C93.87726928 39.28765632 88.75438694 39.57238439 83.63134766 39.85449219 C81.89139496 39.95070779 80.15148501 40.04769996 78.41162109 40.14550781 C75.89952471 40.2865883 73.38728385 40.42480295 70.875 40.5625 C70.10696045 40.60624756 69.3389209 40.64999512 68.54760742 40.69506836 C63.69056755 40.95782539 58.86423571 41.03860505 54 41 C53.96334229 41.54060059 53.92668457 42.08120117 53.88891602 42.63818359 C53.21618687 50.76248982 51.58168951 58.65013645 49.9375 66.625 C48.968125 71.36875 47.99875 76.1125 47 81 C61.19 81 75.38 81 90 81 C88.875 91.125 88.875 91.125 87.80859375 96.12890625 C87.60806396 97.08095947 87.40753418 98.0330127 87.20092773 99.01391602 C86.94899658 100.18494873 86.69706543 101.35598145 86.4375 102.5625 C85.633125 106.336875 84.82875 110.11125 84 114 C69.48 114 54.96 114 40 114 C37.73921852 125.38300362 37.73921852 125.38300362 35.48266602 136.7668457 C35.19823257 138.19485473 34.91365574 139.62283521 34.62890625 141.05078125 C34.48287964 141.79114624 34.33685303 142.53151123 34.18640137 143.29431152 C33.59180741 146.26829337 32.96025284 149.11924148 32 152 C46.52 152 61.04 152 76 152 C74.87304891 162.14255983 74.87304891 162.14255983 74.0625 166.62109375 C73.88976562 167.57564453 73.71703125 168.53019531 73.5390625 169.51367188 C73.36117187 170.47853516 73.18328125 171.44339844 73 172.4375 C72.82210937 173.42943359 72.64421875 174.42136719 72.4609375 175.44335938 C72.28820312 176.38888672 72.11546875 177.33441406 71.9375 178.30859375 C71.78152344 179.16251709 71.62554688 180.01644043 71.46484375 180.89624023 C71 183 71 183 70 185 C39.97 185 9.94 185 -21 185 C-18.69965883 163.14675887 -18.69965883 163.14675887 -17.51953125 153.84057617 C-17.38590179 152.77454666 -17.25227234 151.70851715 -17.11459351 150.61018372 C-16.68275319 147.17083197 -16.24792491 143.7318684 -15.8125 140.29296875 C-15.66237457 139.10430017 -15.51224915 137.9156316 -15.35757446 136.69094276 C-14.56641672 130.42673969 -13.77299861 124.16282814 -12.97753906 117.89916992 C-12.15832903 111.445151 -11.34670604 104.99020106 -10.53675842 98.53501415 C-9.90943114 93.54596847 -9.27667957 88.55762165 -8.64242554 83.56945229 C-8.34059872 81.18829016 -8.04079435 78.80687075 -7.74307251 76.42519188 C-7.32793822 73.10846901 -6.90515154 69.79280677 -6.48046875 66.47729492 C-6.35989105 65.50013519 -6.23931335 64.52297546 -6.11508179 63.51620483 C-5.50555334 58.82083239 -4.87469823 54.39169355 -3 50 C-0.93701172 48.67626953 -0.93701172 48.67626953 1.5703125 47.8828125 C2.37742676 47.61355957 3.18454102 47.34430664 4.01611328 47.06689453 C5.0420459 46.75606934 6.06797852 46.44524414 7.125 46.125 C10.38375 45.09375 13.6425 44.0625 17 43 C8.09 43 -0.82 43 -10 43 C-7.30917865 28.437908 -3.61519974 14.46079896 0 0 Z " fill="#231815" transform="translate(802,77)"/>
<path d="M0 0 C34.98 0 69.96 0 106 0 C103.75 14.625 103.75 14.625 102.7109375 19.95703125 C102.49179688 21.08818359 102.27265625 22.21933594 102.046875 23.38476562 C101.82515625 24.51591797 101.6034375 25.64707031 101.375 26.8125 C101.14554688 27.99392578 100.91609375 29.17535156 100.6796875 30.39257812 C100.12203522 33.2621638 99.56211508 36.13128583 99 39 C93.87726928 39.28765632 88.75438694 39.57238439 83.63134766 39.85449219 C81.89139496 39.95070779 80.15148501 40.04769996 78.41162109 40.14550781 C75.89952471 40.2865883 73.38728385 40.42480295 70.875 40.5625 C70.10696045 40.60624756 69.3389209 40.64999512 68.54760742 40.69506836 C63.69056755 40.95782539 58.86423571 41.03860505 54 41 C53.89816406 42.15371094 53.79632812 43.30742188 53.69140625 44.49609375 C52.88446478 51.75856701 51.35527306 58.90002318 49.9375 66.0625 C48.968125 70.991875 47.99875 75.92125 47 81 C61.19 81 75.38 81 90 81 C89.39125078 85.86999377 88.77791735 90.47794534 87.80859375 95.25 C87.58623047 96.35214844 87.36386719 97.45429688 87.13476562 98.58984375 C86.90466797 99.71519531 86.67457031 100.84054688 86.4375 102 C86.20353516 103.15628906 85.96957031 104.31257813 85.72851562 105.50390625 C85.15497733 108.33648314 84.57873932 111.16848202 84 114 C79.03784542 114.02490464 74.07572805 114.04295606 69.11352539 114.05493164 C67.42894862 114.05992943 65.74437612 114.06672989 64.05981445 114.07543945 C61.62450094 114.08770622 59.18924526 114.09327398 56.75390625 114.09765625 C56.01290176 114.10281754 55.27189728 114.10797882 54.50843811 114.11329651 C49.27037177 114.11384595 44.19839679 113.64951866 39 113 C38.95479218 113.611922 38.90958435 114.22384399 38.86300659 114.85430908 C38.24726204 122.74981216 36.59019779 130.39256334 34.9375 138.125 C33.968125 142.70375 32.99875 147.2825 32 152 C46.52 152 61.04 152 76 152 C74.765338 163.11195796 72.28027788 174.05466616 70 185 C39.97 185 9.94 185 -21 185 C-20.32661623 176.91939473 -19.56068752 168.91979354 -18.54125977 160.88500977 C-18.32640427 159.16804649 -18.32640427 159.16804649 -18.10720825 157.41639709 C-17.63805916 153.67437718 -17.16504467 149.93286042 -16.69140625 146.19140625 C-16.36129306 143.57494987 -16.03121033 140.95848964 -15.70115662 138.34202576 C-15.01149944 132.87919194 -14.31913493 127.41670522 -13.62573242 121.9543457 C-12.82535478 115.64855635 -12.03199946 109.34190916 -11.24173695 103.03484493 C-10.4781784 96.94401862 -9.70722486 90.85414941 -8.93354607 84.76460075 C-8.60640784 82.18167783 -8.28149039 79.59847262 -7.95883369 77.01498604 C-7.50826321 73.41223072 -7.04925994 69.81064595 -6.58813477 66.20922852 C-6.45663528 65.14267029 -6.3251358 64.07611206 -6.18965149 62.97723389 C-6.06213501 61.99483231 -5.93461853 61.01243073 -5.80323792 60.0002594 C-5.69576516 59.15028161 -5.58829241 58.30030382 -5.4775629 57.42456913 C-4.95007447 54.74652994 -4.17424057 52.46348797 -3 50 C-0.93701172 48.78979492 -0.93701172 48.78979492 1.5703125 47.98046875 C2.78098389 47.57284302 2.78098389 47.57284302 4.01611328 47.15698242 C5.55501221 46.67708862 5.55501221 46.67708862 7.125 46.1875 C10.38375 45.135625 13.6425 44.08375 17 43 C8.09 43 -0.82 43 -10 43 C-7.36755289 28.5215409 -3.56911223 14.27644891 0 0 Z " fill="#231815" transform="translate(1040,77)"/>
<path d="M0 0 C21.45 0 42.9 0 65 0 C61.7 7.59 58.4 15.18 55 23 C41.50791885 54.87414938 28.18607393 89.97090909 41.1875 124.1875 C43.94987361 130.43830917 47.77246694 135.66546343 52 141 C52.763125 142.03125 53.52625 143.0625 54.3125 144.125 C57.98986095 148.05892102 62.09942079 151.3283235 66.31689453 154.66699219 C68.83036755 156.65764532 71.33168901 158.66341552 73.83447266 160.66748047 C75.12076579 161.69657848 76.40814341 162.72432293 77.69677734 163.75048828 C79.46833431 165.16232379 81.23576914 166.57902221 83 168 C83.5882959 168.47373047 84.1765918 168.94746094 84.78271484 169.43554688 C86.20818476 170.59997996 87.60702709 171.79688098 89 173 C89 173.33 89 173.66 89 174 C80.22858088 174.25642046 71.45847723 174.45108236 62.68410969 174.56993389 C58.60827829 174.62701957 54.53503507 174.70424651 50.46069336 174.82983398 C46.51819725 174.95057776 42.5781667 175.01536909 38.63396263 175.04364967 C37.13991695 175.06376328 35.64598573 175.10304071 34.15300941 175.16303062 C25.47853824 175.49728074 19.37911574 174.51769251 12.79370117 168.68286133 C10.82454587 166.82370762 8.91679637 164.91419219 7 163 C5.33281766 161.64134733 3.64915543 160.30217883 1.9375 159 C-11.49840688 148.2949685 -28.18435097 134.09569562 -31 116 C-32.63441808 82.51343428 -23.4405762 51.37240053 -10.25 20.9375 C-9.96996124 20.29066254 -9.68992249 19.64382507 -9.40139771 18.97738647 C-6.55400999 12.43274579 -3.55427142 6.21997499 0 0 Z " fill="#231815" transform="translate(1172,88)"/>
<path d="M0 0 C2.7081604 -0.36076355 2.7081604 -0.36076355 6.19384766 -0.34057617 C7.49504547 -0.34034958 8.79624329 -0.34012299 10.13687134 -0.33988953 C11.56260519 -0.32456837 12.98833556 -0.30892037 14.4140625 -0.29296875 C15.86851566 -0.28737443 17.32297447 -0.28310356 18.7774353 -0.28010559 C22.60806855 -0.26864374 26.43836128 -0.23916547 30.26885986 -0.20599365 C34.17658888 -0.17532138 38.08437284 -0.16160637 41.9921875 -0.14648438 C49.66161368 -0.11429667 57.33075915 -0.06308463 65 0 C64.7245636 0.63062347 64.4491272 1.26124695 64.16534424 1.91098022 C36.59226351 61.12526467 36.59226351 61.12526467 41.1875 124.1875 C43.94114959 130.42910574 47.77252562 135.67993781 52 141 C52.63808594 141.84304687 53.27617188 142.68609375 53.93359375 143.5546875 C56.10692301 146.12652893 58.36378485 148.0965734 61 150.1875 C65.08024835 153.45713901 69.12160242 156.7615317 73.125 160.125 C77.45041071 163.74548719 81.84211322 167.24201639 86.35546875 170.625 C88 172 88 172 89 174 C80.22858088 174.25642046 71.45847723 174.45108236 62.68410969 174.56993389 C58.60827829 174.62701957 54.53503507 174.70424651 50.46069336 174.82983398 C46.51819725 174.95057776 42.5781667 175.01536909 38.63396263 175.04364967 C37.13991695 175.06376328 35.64598573 175.10304071 34.15300941 175.16303062 C25.47853824 175.49728074 19.37911574 174.51769251 12.79370117 168.68286133 C10.82454587 166.82370762 8.91679637 164.91419219 7 163 C5.33281766 161.64134733 3.64915543 160.30217883 1.9375 159 C-11.53711972 148.26412413 -28.11372196 134.11748024 -31 116 C-32.29012432 95.48206127 -29.16267278 74.54728926 -23 55 C-22.73622559 54.14857422 -22.47245117 53.29714844 -22.20068359 52.41992188 C-16.76422619 35.1463715 -10.11498749 15.17248124 0 0 Z " fill="#231815" transform="translate(1672,88)"/>
<path d="M0 0 C37.29 0 74.58 0 113 0 C110.75 14.625 110.75 14.625 109.4921875 20.61328125 C109.22792969 21.87978516 108.96367188 23.14628906 108.69140625 24.45117188 C108.42199219 25.72541016 108.15257812 26.99964844 107.875 28.3125 C107.59473717 29.65032469 107.31478775 30.98821508 107.03515625 32.32617188 C106.35983272 35.55142389 105.68035426 38.77580545 105 42 C92.625 42.495 92.625 42.495 80 43 C79.34 46.96 78.68 50.92 78 55 C77.19040582 58.94518551 76.36028924 62.87886247 75.49389648 66.8112793 C75.13010895 68.4793589 75.13010895 68.4793589 74.75897217 70.18113708 C73.96605303 73.81283689 73.16876791 77.44356063 72.37109375 81.07421875 C71.8156864 83.61054645 71.26043679 86.14690869 70.70533752 88.68330383 C69.54652478 93.97477573 68.38553081 99.26576227 67.22290039 104.55639648 C65.87820407 110.67576566 64.5384641 116.79620515 63.20113128 122.91718739 C61.91126701 128.82006931 60.61726571 134.72203549 59.32155037 140.62363625 C58.77138055 143.13174432 58.22236228 145.64010527 57.6744976 148.14871788 C56.91212753 151.63729194 56.14506043 155.12479975 55.37670898 158.61206055 C55.14967789 159.65559692 54.92264679 160.6991333 54.68873596 161.77429199 C54.47989777 162.7175383 54.27105957 163.66078461 54.05589294 164.63261414 C53.78463419 165.86886551 53.78463419 165.86886551 53.50789547 167.13009167 C53 169 53 169 52 170 C50.55710213 170.09295815 49.10970215 170.11746513 47.66381836 170.11352539 C46.28249977 170.11341209 46.28249977 170.11341209 44.87327576 170.11329651 C43.87224319 170.10813522 42.87121063 170.10297394 41.83984375 170.09765625 C40.82024063 170.0962413 39.80063751 170.09482635 38.75013733 170.09336853 C35.47922893 170.08775097 32.20838787 170.0751955 28.9375 170.0625 C26.72591244 170.05748726 24.51432382 170.05292396 22.30273438 170.04882812 C16.86846643 170.03777584 11.43423803 170.02102063 6 170 C6.63346144 157.68846127 8.26817857 145.54553605 9.90625 133.3359375 C10.19419052 131.16838525 10.48182352 129.00079214 10.76916504 126.8331604 C11.36838948 122.31957201 11.97043643 117.80637256 12.57470703 113.29345703 C13.34922896 107.50823151 14.11792761 101.72225066 14.88471222 95.9359951 C15.4765326 91.47315305 16.07071741 87.01062845 16.66569519 82.54820633 C16.95014244 80.41361748 17.23401059 78.27895138 17.51728821 76.144207 C17.91221514 73.17183357 18.31015982 70.19987997 18.70898438 67.22802734 C18.82537766 66.3480307 18.94177094 65.46803406 19.06169128 64.56137085 C19.17100479 63.75151733 19.2803183 62.94166382 19.39294434 62.10726929 C19.53341312 61.05604669 19.53341312 61.05604669 19.67671967 59.98358727 C20.3298394 55.97616754 20.3298394 55.97616754 21 54 C23.50024414 52.71972656 23.50024414 52.71972656 26.78515625 51.640625 C28.53989258 51.05087891 28.53989258 51.05087891 30.33007812 50.44921875 C31.56177734 50.05347656 32.79347656 49.65773437 34.0625 49.25 C35.29806641 48.83878906 36.53363281 48.42757812 37.80664062 48.00390625 C40.86656712 46.98786888 43.93072874 45.98737549 47 45 C28.65812819 44.77692318 10.33078178 45.43968995 -8 46 C-6.46612923 34.73999411 -4.80876566 23.51148689 -2.875 12.3125 C-2.70452148 11.31532959 -2.53404297 10.31815918 -2.35839844 9.29077148 C-2.19629883 8.36594971 -2.03419922 7.44112793 -1.8671875 6.48828125 C-1.72394043 5.66884033 -1.58069336 4.84939941 -1.43310547 4.00512695 C-1 2 -1 2 0 0 Z " fill="#231815" transform="translate(911,91)"/>
<path d="M0 0 C19.14 0 38.28 0 58 0 C57.40386235 5.96137649 56.819801 11.55253101 55.75428772 17.38824463 C55.63233786 18.06225807 55.51038799 18.73627151 55.38474268 19.4307096 C54.98170535 21.65275431 54.57304182 23.87372351 54.16430664 26.09472656 C53.87151137 27.70214939 53.57905551 29.30963407 53.28691101 30.91717529 C52.49722514 35.25638198 51.70250367 39.59465183 50.90659642 43.93272114 C50.24143779 47.56092396 49.57884421 51.18959324 48.91626352 54.81826758 C47.3534238 63.37722177 45.78657486 71.93543509 44.21704102 80.49316406 C42.59931928 89.31394777 40.98767757 98.13582657 39.3791247 106.95828652 C37.99545068 114.54636749 36.60837621 122.1338212 35.21849531 129.72076774 C34.38941104 134.24655817 33.5615286 138.77255956 32.73677254 143.29914093 C31.96177171 147.5516391 31.18250568 151.803334 30.39996529 156.05445099 C30.11386048 157.61261611 29.82923568 159.17105383 29.54621506 160.7297821 C29.15908442 162.86051703 28.76656308 164.99019152 28.37269592 167.11968994 C28.04556406 168.90600012 28.04556406 168.90600012 27.71182346 170.72839737 C27 174 27 174 25 180 C9.16 180 -6.68 180 -23 180 C-23 174.58179711 -22.85609628 169.88771473 -22.17152405 164.5975647 C-22.08239146 163.89793653 -21.99325888 163.19830836 -21.9014253 162.47747934 C-21.60454447 160.15702719 -21.30046422 157.83757915 -20.99633789 155.51806641 C-20.78078846 153.84533071 -20.56567651 152.17253859 -20.35096741 150.49969482 C-19.7688411 145.97476811 -19.18035173 141.45069013 -18.59049153 136.92676592 C-17.97380518 132.19023177 -17.36233078 127.45302447 -16.75010681 122.71591187 C-15.72213138 114.76831435 -14.69007089 106.82125549 -13.65551758 98.87451172 C-12.45852609 89.67967516 -11.26775867 80.48404893 -10.08035094 71.28797019 C-8.93793245 62.44126659 -7.79139819 53.59510128 -6.64288139 44.74918747 C-6.15395922 40.98304138 -5.66644465 37.21671699 -5.18004036 33.4502449 C-4.60802171 29.02242774 -4.03239783 24.59509403 -3.45393944 20.16811371 C-3.24184363 18.54042922 -3.03099646 16.91258149 -2.82146454 15.28456497 C-2.53615851 13.06943378 -2.24640351 10.85493011 -1.95545959 8.64053345 C-1.79414582 7.39912912 -1.63283205 6.1577248 -1.46662998 4.87870216 C-1 2 -1 2 0 0 Z " fill="#231815" transform="translate(1421,82)"/>
<path d="M0 0 C3.16238934 -0.42045912 5.03695986 -0.45387945 8.07421875 0.5703125 C12.20777951 3.79126894 15.44248267 7.97859687 18.75195312 12.00683594 C21.51186419 15.27021674 24.74565192 17.91224834 28.07421875 20.5703125 C29.0384375 21.34890625 30.00265625 22.1275 30.99609375 22.9296875 C38.33449953 28.76621763 45.93852107 33.88612293 54.07421875 38.5703125 C55.76417969 39.55644531 55.76417969 39.55644531 57.48828125 40.5625 C73.76667968 49.80377712 91.71972237 56.01305269 110.07421875 59.5703125 C111.03360352 59.75867676 111.99298828 59.94704102 112.98144531 60.14111328 C124.26840027 62.05945618 135.536539 61.79310911 146.94921875 61.6953125 C149.00520395 61.68525799 151.06119394 61.67613653 153.1171875 61.66796875 C158.10298492 61.64616175 163.08854759 61.6117694 168.07421875 61.5703125 C156.42065858 67.55271717 141.50958921 68.81885483 128.69921875 70.7578125 C127.69947021 70.91233887 126.69972168 71.06686523 125.66967773 71.22607422 C104.64671216 74.25733078 83.60197208 74.92287568 62.39599609 74.88598633 C59.52897362 74.88137528 56.66237757 74.88822381 53.79541016 74.90649414 C-55.77644331 75.59728209 -55.77644331 75.59728209 -86.61328125 45.2578125 C-89.39692487 41.67538419 -89.68362353 38.37608378 -89.3671875 33.92578125 C-88.34688951 28.48118223 -85.32245044 25.66159493 -80.98828125 22.5703125 C-56.27306964 7.21328781 -27.79772727 5.4185156 0 0 Z " fill="#DADBDB" transform="translate(88.92578125,281.4296875)"/>
<path d="M0 0 C23.33900363 2.15354128 46.17213365 14.68445679 65 28 C65.59586914 28.41942871 66.19173828 28.83885742 66.80566406 29.27099609 C83.39642387 41.14624135 97.48365061 56.22261925 109 73 C109.39735352 73.56525391 109.79470703 74.13050781 110.20410156 74.71289062 C113 78.75874891 113 78.75874891 113 81 C112.15651001 80.99777939 111.31302002 80.99555878 110.44396973 80.99327087 C102.33062858 80.97288337 94.21729652 80.95783602 86.10393524 80.94818783 C81.93695446 80.94306029 77.76999554 80.93615781 73.60302734 80.92456055 C51.7130741 80.86522488 29.87461542 81.1462312 8 82 C6.86339203 78.59017608 6.58234084 75.52844114 6.24389648 71.94580078 C6.17547546 71.23162994 6.10705444 70.51745911 6.03656006 69.78164673 C5.81123445 67.41985306 5.5910523 65.05761159 5.37109375 62.6953125 C5.21582378 61.05245712 5.06030785 59.40962497 4.90455627 57.76681519 C4.57874904 54.3221258 4.25538792 50.87721824 3.93383789 47.43212891 C3.52201866 43.02117317 3.10500069 38.61072839 2.68624783 34.2004261 C2.36446414 30.80680021 2.04502657 27.41295674 1.72633553 24.01903915 C1.57345807 22.39311745 1.4199534 20.7672546 1.2658062 19.14145279 C1.05045805 16.86550773 0.83816749 14.5892976 0.62670898 12.31298828 C0.50537094 11.0185379 0.3840329 9.72408752 0.25901794 8.39041138 C0.04372866 5.57238557 -0.05413542 2.82351957 0 0 Z " fill="#B50005" transform="translate(272,3)"/>
<path d="M0 0 C16.83 0 33.66 0 51 0 C45.76665676 30.3533908 40.4790708 60.69024665 35 91 C18.17 91 1.34 91 -16 91 C-11.04131888 60.59545526 -5.56290993 30.29916949 0 0 Z " fill="#231815" transform="translate(1742,73)"/>
<path d="M0 0 C16.83 0 33.66 0 51 0 C47.58629467 19.52407708 47.58629467 19.52407708 46.12109375 27.90039062 C45.1246253 33.59704955 44.12823406 39.2937219 43.13232422 44.99047852 C42.32864108 49.58763899 41.52459366 54.18473563 40.72030258 58.78178978 C40.41480639 60.52826902 40.10943745 62.27477053 39.80420303 64.02129555 C39.37388334 66.48341453 38.94309495 68.94545111 38.51220703 71.4074707 C38.32662735 72.47023727 38.32662735 72.47023727 38.13729858 73.55447388 C37.11786516 79.37482552 36.05710258 85.18593578 35 91 C18.17 91 1.34 91 -16 91 C-11.04131888 60.59545526 -5.56290993 30.29916949 0 0 Z " fill="#231815" transform="translate(1242,73)"/>
<path d="M0 0 C15.18 0 30.36 0 46 0 C46 12.37816508 46 12.37816508 44.72265625 18.3125 C44.32336914 20.20162109 44.32336914 20.20162109 43.91601562 22.12890625 C43.63435547 23.40636719 43.35269531 24.68382812 43.0625 26 C42.78091825 27.32140554 42.50031348 28.64301966 42.22070312 29.96484375 C40.20076885 39.39769345 40.20076885 39.39769345 39 43 C23.82 43 8.64 43 -7 43 C-6.39874868 36.38623546 -5.82344242 30.3562424 -4.58984375 23.92578125 C-4.3487085 22.65387939 -4.10757324 21.38197754 -3.85913086 20.0715332 C-3.55499268 18.50105225 -3.25085449 16.93057129 -2.9375 15.3125 C-1.968125 10.259375 -0.99875 5.20625 0 0 Z " fill="#231815" transform="translate(1806,229)"/>
</svg>
