<svg xmlns="http://www.w3.org/2000/svg" xmlns:xlink="http://www.w3.org/1999/xlink" width="500" zoomAndPan="magnify" viewBox="0 0 375 374.999991" height="500" preserveAspectRatio="xMidYMid meet" version="1.0"><defs><clipPath id="47b90b4966"><path d="M 317.996094 317.996094 L 374.996094 317.996094 L 374.996094 374.996094 L 317.996094 374.996094 Z M 317.996094 317.996094 " clip-rule="nonzero"/></clipPath></defs><path fill="#000000" d="M 187.5 0 C 83.789062 0 0 83.789062 0 187.5 C 0 291.210938 83.789062 375 187.5 375 C 291.210938 375 375 291.210938 375 187.5 C 375 83.789062 291.210938 0 187.5 0 Z M 187.5 304.6875 C 123.046875 304.6875 70.3125 251.953125 70.3125 187.5 C 70.3125 123.046875 123.046875 70.3125 187.5 70.3125 C 251.953125 70.3125 304.6875 123.046875 304.6875 187.5 C 304.6875 251.953125 251.953125 304.6875 187.5 304.6875 Z M 187.5 304.6875 " fill-opacity="1" fill-rule="nonzero"/><g clip-path="url(#47b90b4966)"><path fill="#000000" d="M 346.496094 317.996094 C 362.234375 317.996094 374.996094 330.757812 374.996094 346.496094 C 374.996094 362.234375 362.234375 374.996094 346.496094 374.996094 C 330.757812 374.996094 317.996094 362.234375 317.996094 346.496094 C 317.996094 330.757812 330.757812 317.996094 346.496094 317.996094 Z M 346.496094 317.996094 " fill-opacity="1" fill-rule="evenodd"/></g></svg>