<?xml version="1.0" standalone="no"?>
<!DOCTYPE svg PUBLIC "-//W3C//DTD SVG 20010904//EN"
 "http://www.w3.org/TR/2001/REC-SVG-20010904/DTD/svg10.dtd">
<svg version="1.0" xmlns="http://www.w3.org/2000/svg"
 width="1852.000000pt" height="356.000000pt" viewBox="0 0 1852.000000 356.000000"
 preserveAspectRatio="xMidYMid meet">

<g transform="translate(0.000000,356.000000) scale(0.100000,-0.100000)"
fill="#000000" stroke="none">
<path d="M1964 3536 c-699 -146 -1225 -668 -1376 -1366 -19 -90 -22 -135 -23
-320 0 -185 3 -231 23 -327 61 -301 206 -594 400 -805 281 -306 586 -481 993
-570 92 -20 133 -22 344 -22 214 -1 252 2 350 23 714 152 1248 683 1385 1377
30 152 37 373 16 529 -16 126 -51 273 -67 290 -15 15 -414 9 -569 -9 -152 -18
-377 -57 -514 -90 l-91 -22 5 -134 c9 -239 4 -711 -9 -840 -35 -355 -119 -721
-214 -928 l-22 -47 -7 145 c-10 201 -35 533 -59 795 -24 259 -88 857 -92 861
-5 5 -189 -80 -284 -131 -188 -102 -378 -246 -579 -439 l-121 -115 -282 429
c-154 236 -281 434 -281 439 0 10 161 83 300 136 302 116 656 204 1033 258 92
14 170 27 172 29 15 15 -85 450 -136 594 -53 151 -132 285 -167 283 -10 0 -67
-11 -128 -23z"/>
<path d="M2730 3512 c0 -19 72 -787 74 -787 0 -1 234 1 518 3 l518 4 -62 90
c-70 102 -219 263 -322 347 -187 153 -426 276 -658 341 -63 17 -68 17 -68 2z"/>
<path d="M7040 2828 c-135 -34 -247 -63 -250 -66 -3 -2 3 -9 14 -16 306 -187
437 -316 453 -443 10 -91 -45 -238 -153 -406 -69 -107 -266 -389 -269 -385 -2
2 41 235 96 518 54 283 99 521 99 528 0 9 -60 12 -265 12 -209 0 -265 -3 -265
-13 0 -7 -56 -370 -125 -807 -69 -436 -125 -795 -125 -797 0 -2 107 -2 237 -1
l237 3 48 243 c26 134 49 249 51 255 2 7 62 -104 133 -245 l129 -258 303 0
c274 0 304 2 298 16 -3 9 -88 142 -188 296 l-182 281 31 26 c16 14 73 63 126
108 173 149 295 312 349 470 28 79 30 95 26 192 -3 98 -6 112 -41 185 -64 135
-195 245 -394 332 -43 18 -89 33 -103 33 -14 -1 -135 -28 -270 -61z"/>
<path d="M12425 2808 c-8 -39 -155 -868 -155 -878 0 -6 92 -10 245 -10 135 0
245 2 245 4 0 3 36 206 80 452 44 246 80 449 80 451 0 2 -110 3 -245 3 l-245
0 -5 -22z"/>
<path d="M17425 2808 c-8 -39 -155 -868 -155 -878 0 -6 92 -10 245 -10 135 0
245 1 245 3 0 2 36 205 80 451 44 246 80 449 80 452 0 2 -110 4 -245 4 l-245
0 -5 -22z"/>
<path d="M5191 2580 c-28 -116 -51 -213 -51 -215 0 -3 73 -3 163 0 l162 5
-132 -46 c-128 -44 -133 -46 -138 -77 -4 -26 -165 -1285 -165 -1294 0 -2 202
-3 449 -3 l449 0 26 143 c15 78 29 150 32 160 5 16 -10 17 -215 17 -170 0
-221 3 -221 13 0 6 16 94 36 195 l37 182 221 0 222 0 30 155 31 155 -220 0
-219 0 5 23 c3 12 22 106 43 208 l36 187 177 7 c97 4 196 10 221 14 l45 6 32
165 c17 91 32 175 32 188 l1 22 -519 0 -519 0 -51 -210z"/>
<path d="M8021 2753 c-20 -74 -91 -375 -91 -384 0 -5 71 -7 163 -4 l162 5
-135 -47 -134 -48 -83 -645 c-45 -355 -82 -653 -83 -662 0 -17 28 -18 448 -18
l448 0 27 143 c15 79 27 151 27 160 0 15 -22 17 -219 17 l-218 0 28 143 c16
78 34 166 40 194 l10 53 222 2 221 3 28 135 c15 74 27 143 28 153 0 16 -17 17
-215 17 -118 0 -215 4 -215 8 0 12 80 405 82 407 2 1 99 7 216 13 118 6 216
13 220 16 5 6 72 340 72 364 0 9 -111 12 -520 12 l-519 0 -10 -37z"/>
<path d="M10405 2778 c-9 -30 -95 -396 -95 -407 0 -8 44 -10 163 -6 l162 5
-135 -47 -135 -48 -82 -640 c-45 -352 -82 -650 -83 -662 l0 -23 448 0 448 0
27 148 c15 81 27 153 27 160 0 9 -51 12 -221 12 -205 0 -220 1 -215 18 2 9 19
89 36 177 17 88 34 168 36 178 5 15 24 17 224 17 219 0 220 0 225 23 10 43 55
270 55 278 0 5 -97 9 -215 9 -118 0 -215 3 -215 7 0 10 70 375 76 394 4 13 39
17 220 27 119 6 218 13 221 16 5 5 72 341 73 364 0 9 -111 12 -520 12 -408 0
-521 -3 -525 -12z"/>
<path d="M15954 2743 c-77 -527 -172 -1112 -177 -1093 -3 14 -22 241 -42 505
-20 264 -38 490 -41 503 l-4 22 -365 0 c-201 0 -365 -2 -365 -5 0 -3 -47 -390
-105 -861 -58 -470 -105 -857 -105 -859 0 -3 92 -5 204 -5 186 0 205 2 210 18
2 9 51 244 107 521 64 309 106 496 110 485 4 -11 24 -226 44 -479 19 -253 38
-479 41 -502 l6 -43 288 0 c266 0 289 1 294 18 8 27 396 1802 396 1813 0 5
-99 9 -244 9 l-245 0 -7 -47z"/>
<path d="M14210 2718 c-1 -13 -52 -414 -114 -893 -63 -478 -112 -872 -109
-875 3 -3 109 -6 238 -8 l233 -4 21 119 c12 65 86 470 165 901 l143 782 -289
0 -288 0 0 -22z"/>
<path d="M11690 2603 c-91 -191 -181 -431 -221 -587 -29 -115 -49 -273 -49
-402 l0 -112 47 -93 c55 -111 145 -206 339 -362 l121 -97 333 2 333 3 -79 60
c-129 98 -236 193 -287 253 -56 67 -120 192 -142 277 -20 78 -20 264 -1 375
30 170 113 408 221 638 l54 112 -319 0 -318 0 -32 -67z"/>
<path d="M16695 2613 c-111 -238 -209 -507 -239 -653 -24 -120 -36 -237 -36
-351 l0 -107 46 -92 c55 -109 150 -211 340 -363 l121 -97 332 2 333 3 -108 84
c-207 163 -278 237 -339 352 -96 184 -101 427 -15 719 38 128 105 297 176 448
l53 112 -319 0 -319 0 -26 -57z"/>
<path d="M9110 2634 c0 -3 -16 -100 -35 -216 -20 -116 -33 -213 -30 -216 2 -3
138 0 301 7 163 7 298 10 300 8 3 -2 -65 -28 -150 -57 -86 -30 -159 -56 -164
-59 -9 -6 -161 -1139 -153 -1146 2 -3 104 -5 226 -5 l222 0 82 373 c45 204
108 491 140 637 l58 265 121 9 c113 8 123 10 127 30 13 55 75 361 75 368 0 5
-252 8 -560 8 -308 0 -560 -3 -560 -6z"/>
<path d="M18061 1218 c-6 -29 -22 -118 -36 -198 -15 -80 -28 -153 -31 -163 -5
-16 8 -17 222 -15 l228 3 38 180 c20 99 38 195 38 213 l0 32 -224 0 -225 0
-10 -52z"/>
</g>
</svg>
